<svg width="166" height="50" viewBox="0 0 166 50" fill="none" xmlns="http://www.w3.org/2000/svg">
<g style="mix-blend-mode:luminosity">
<path d="M37.2291 12.2655V27.7379C37.2291 27.9887 37.1297 28.2292 36.9528 28.4066C36.7759 28.5839 36.5359 28.6835 36.2857 28.6835H31.4129C31.1628 28.6834 30.9229 28.5838 30.746 28.4064C30.569 28.2291 30.4696 27.9887 30.4695 27.7379V2.57131C30.4695 2.32051 30.5689 2.07998 30.7458 1.90263C30.9228 1.72529 31.1627 1.62566 31.4129 1.62566H35.9221C36.1723 1.62566 36.4123 1.72529 36.5892 1.90263C36.7662 2.07998 36.8656 2.32051 36.8656 2.57131V6.11543C36.8656 6.11543 38.4775 1.05985 43.2612 1.05985C43.2612 1.05985 47.9929 0.486535 49.9168 5.75059C49.9168 5.75059 51.5287 1.05985 56.4165 1.05985C56.4165 1.05985 63.6852 0.626632 63.6852 8.1656L63.7406 12.3176V27.79C63.7406 28.0408 63.6412 28.2813 63.4642 28.4587C63.2873 28.636 63.0473 28.7357 62.7971 28.7357H57.924C57.6738 28.7355 57.4339 28.6359 57.257 28.4586C57.0801 28.2812 56.9806 28.0408 56.9805 27.79L56.936 10.9104C57.0745 7.08818 53.9897 7.36629 53.9897 7.36629C50.1073 7.43593 50.4809 12.3176 50.4809 12.3176V27.79C50.4809 28.0408 50.3815 28.2813 50.2046 28.4587C50.0276 28.636 49.7877 28.7357 49.5375 28.7357H44.6647C44.4145 28.7355 44.1746 28.6359 43.9977 28.4586C43.8208 28.2812 43.7214 28.0408 43.7213 27.79V11.2923C43.7213 11.2923 44.0062 7.33127 40.5395 7.33127C40.5399 7.33127 37.1081 6.87971 37.2291 12.2655ZM162.835 12.2192V27.6912C162.835 27.942 162.736 28.1824 162.559 28.3597C162.382 28.5371 162.142 28.6367 161.892 28.6368L156.824 28.7352C156.574 28.7351 156.334 28.6355 156.157 28.4581C155.98 28.2808 155.881 28.0404 155.881 27.7896V11.2923C155.881 11.2923 156.166 7.33127 152.699 7.33127C152.699 7.33127 149.388 7.16782 149.388 13.3784V27.7375C149.388 27.9882 149.289 28.2287 149.112 28.406C148.935 28.5833 148.695 28.683 148.445 28.6831H143.572C143.322 28.683 143.082 28.5833 142.905 28.406C142.728 28.2287 142.629 27.9882 142.628 27.7375V2.57131C142.629 2.32054 142.728 2.08007 142.905 1.90275C143.082 1.72543 143.322 1.62577 143.572 1.62566H148.081C148.331 1.62566 148.571 1.72529 148.748 1.90263C148.925 2.07998 149.025 2.32051 149.025 2.57131V6.11543C149.025 6.11543 150.636 1.05985 155.42 1.05985C155.42 1.05985 160.545 0.28056 162.27 5.65261C162.271 5.65219 162.835 6.76046 162.835 12.2192ZM127.652 0.95561C121.421 0.95561 116.369 6.21967 116.369 15.08C116.369 22.8808 120.268 29.2043 127.652 29.2043C134.62 29.2043 138.935 22.8808 138.935 15.08C138.935 6.37602 133.884 0.95561 127.652 0.95561ZM131.585 15.3927C131.585 18.7283 131.169 20.5004 131.169 20.5004C130.577 24.0266 128.024 24.0316 127.647 24.0128C127.241 24.0291 124.665 23.9924 124.132 20.5004C124.132 20.5004 123.716 18.7283 123.716 15.3927V14.8369C123.716 11.5012 124.132 9.72918 124.132 9.72918C124.665 6.23718 127.241 6.20049 127.647 6.21633C128.024 6.19757 130.577 6.20215 131.169 9.72918C131.169 9.72918 131.585 11.5012 131.585 14.8369V15.3927ZM113.54 6.0804V2.46957C113.54 2.2188 113.441 1.97834 113.264 1.80102C113.087 1.6237 112.847 1.52403 112.597 1.52392H96.4904C96.2402 1.52392 96.0002 1.62355 95.8233 1.80089C95.6464 1.97824 95.547 2.21877 95.547 2.46957V6.05247C95.5471 6.30324 95.6465 6.5437 95.8234 6.72102C96.0003 6.89835 96.2402 6.99801 96.4904 6.99812H104.892L94.9475 21.4581C94.9475 21.4581 94.5557 22.0444 94.5686 22.6919V27.0904C94.5686 27.0904 94.5037 28.5985 96.21 27.7233C96.21 27.7233 99.2408 25.8879 104.323 25.8879C104.323 25.8879 109.342 25.8253 112.688 27.8813C112.688 27.8813 114.077 28.5143 114.077 27.1225V23.294C114.077 23.294 114.203 22.2808 112.877 21.6483C112.877 21.6483 109.026 19.5285 103.975 19.8762L113.54 6.0804ZM26.7087 24.1829L25.1833 21.8555C24.6978 20.9865 24.7328 20.0134 24.7328 20.0134V9.2772C24.9408 -5.16772e-05 14.6799 0.799251 14.6799 0.799251C5.55833 0.799251 4.21099 7.91459 4.21099 7.91459C3.83078 9.34516 4.93645 9.37977 4.93645 9.37977L9.39364 9.833C9.39364 9.833 10.1536 10.0073 10.4303 9.10041C10.4303 9.10041 11.0172 5.99618 14.2997 5.99618C17.8712 5.99618 17.8342 9.06872 17.8342 9.06872V11.6409C10.7044 11.8798 7.40028 13.8637 7.40028 13.8637C2.998 16.3654 3.27504 21.3343 3.27504 21.3343C3.27504 29.4299 10.9706 29.0821 10.9706 29.0821C15.8929 29.0821 18.8047 25.4688 18.8047 25.4688C19.6712 26.9982 21.266 28.4567 21.266 28.4567C22.0639 29.324 22.8954 28.596 22.8954 28.596L26.5007 25.5038C27.2977 24.9126 26.7087 24.1829 26.7087 24.1829ZM13.3729 24.0829C11.0575 24.0829 10.1969 21.7767 10.5813 19.5101C10.966 17.2435 12.9644 15.4623 17.8346 15.5144V16.8925C18.0073 22.9125 15.3001 24.0829 13.3729 24.0829ZM91.4621 24.1829L89.9371 21.8555C89.4517 20.9865 89.4862 20.0134 89.4862 20.0134V9.2772C89.6942 -5.16772e-05 79.4333 0.799251 79.4333 0.799251C70.3117 0.799251 68.9644 7.91459 68.9644 7.91459C68.5842 9.34516 69.6899 9.37977 69.6899 9.37977L74.147 9.833C74.147 9.833 74.907 10.0073 75.1837 9.10041C75.1837 9.10041 75.7706 5.99618 79.0531 5.99618C82.6246 5.99618 82.5876 9.06872 82.5876 9.06872V11.6409C75.4582 11.8798 72.1537 13.8637 72.1537 13.8637C67.7514 16.3654 68.0285 21.3343 68.0285 21.3343C68.0285 29.4299 75.724 29.0821 75.724 29.0821C80.6463 29.0821 83.5581 25.4688 83.5581 25.4688C84.425 26.9982 86.019 28.4567 86.019 28.4567C86.8169 29.324 87.6488 28.596 87.6488 28.596L91.2537 25.5038C92.0511 24.9126 91.4621 24.1829 91.4621 24.1829ZM78.1263 24.0829C75.811 24.0829 74.9503 21.7767 75.3347 19.5101C75.7194 17.2435 77.7178 15.4623 82.5876 15.5144V16.8925C82.7607 22.9125 80.0539 24.0829 78.1263 24.0829Z" fill="black"/>
<path d="M103.732 44.5044C103.732 44.5044 103.324 45.2153 103.825 45.3742C103.825 45.3742 104.391 45.5956 105.096 44.9393C105.096 44.9393 110.241 40.4341 110.365 32.2318C110.365 32.2318 110.403 31.2073 109.993 30.9271C109.993 30.9271 108.381 29.4978 102.585 29.9327C102.585 29.9327 97.5324 30.2746 94.7741 32.7292C94.7741 32.7292 94.5261 32.9464 94.5261 33.2258C94.5261 33.2258 94.4667 33.8291 95.9829 33.5677C95.9829 33.5677 101.035 32.8526 104.042 33.2258C104.042 33.2258 105.592 33.4122 106.026 33.9409C106.026 33.9409 106.739 34.5313 106.366 36.4881C106.366 36.4889 105.343 41.4598 103.732 44.5044Z" fill="#F3971B"/>
<path d="M102.713 36.6351C102.713 36.6351 103.468 37.615 102.25 38.4601C102.25 38.4601 89.2437 48.8882 67.4049 48.8882C67.4049 48.8882 44.9247 49.9998 26.1537 32.9046C26.1537 32.9046 25.4957 32.3255 25.9042 31.7872C25.9042 31.7872 26.2694 31.2918 27.2149 31.8306C27.2149 31.8306 44.8727 42.8594 68.0634 42.8594C68.0634 42.8594 84.1825 43.4849 100.718 36.3966C100.718 36.3966 102.035 35.7124 102.713 36.6351Z" fill="#F3971B"/>
</g>
</svg>
