<svg width="182" height="50" viewBox="0 0 182 50" fill="none" xmlns="http://www.w3.org/2000/svg">
<g style="mix-blend-mode:luminosity" clip-path="url(#clip0_6_700)">
<path d="M43.9132 0.041748V38.5699L48.8681 38.5888V20.2501H60.8393V15.3964H48.8681V4.89554H64.4514V0.041748H43.9132ZM73.3967 7.8607C75.1933 7.8607 76.6306 6.40645 76.6306 4.63113C76.6306 2.85581 75.1744 1.40157 73.3967 1.40157C71.6001 1.40157 70.1628 2.85581 70.1628 4.63113C70.1628 6.40645 71.619 7.8607 73.3967 7.8607ZM70.8814 12.7145V38.5699H75.8363V12.7145H70.8814Z" fill="black"/>
<path fill-rule="evenodd" clip-rule="evenodd" d="M94.2374 11.959C87.6372 11.959 83.0416 17.5305 83.0416 24.1407C83.0416 30.7509 87.6372 36.3224 94.2374 36.3224C97.2633 36.3224 99.7407 35.1514 101.556 33.2628V36.6812C101.556 40.9684 98.19 44.5379 93.7835 44.5379C92.1949 44.5379 90.6253 43.9336 89.3771 43.0648L86.8807 47.3709C88.8665 48.6552 91.2304 49.3917 93.7646 49.3917C100.8 49.3917 106.492 43.7069 106.492 36.6812V12.7144H101.556V15.0186C99.7407 13.1299 97.2633 11.959 94.2374 11.959ZM88.0154 24.1407C88.0154 20.0423 91.1548 16.8128 94.7858 16.8128C98.4169 16.8128 101.556 20.0423 101.556 24.1407C101.556 28.239 98.4169 31.4686 94.7858 31.4686C91.1548 31.4686 88.0154 28.239 88.0154 24.1407Z" fill="black"/>
<path d="M124.402 16.8128C121.47 16.8128 119.088 19.3058 119.088 22.2332V38.5699H114.133V12.7144H119.088V15.0752C120.544 13.2055 122.681 11.959 125.48 11.959C128.96 11.959 131.626 13.6776 133.177 16.3217C134.898 13.7721 137.697 11.959 141.082 11.959C146.737 11.959 150.254 16.5106 150.273 22.1387V38.5699H145.318V22.2143C145.318 19.2869 142.935 16.7939 140.004 16.7939C137.073 16.7939 134.69 19.2869 134.69 22.2143V38.5699H129.735V22.2143C129.716 19.2869 127.333 16.8128 124.402 16.8128Z" fill="black"/>
<path fill-rule="evenodd" clip-rule="evenodd" d="M176.712 15.6418C174.499 13.3566 171.473 11.959 167.975 11.959C160.599 11.959 155.341 18.2104 155.341 25.6516C155.341 33.0928 160.58 39.3442 167.975 39.3442C171.473 39.3442 174.499 37.9277 176.712 35.6614V38.5699H181.667V12.7144H176.712V15.6418ZM160.315 25.6516C160.315 20.7223 164.098 16.8128 168.523 16.8128C172.929 16.8128 176.731 20.7034 176.731 25.6516C176.731 30.5809 172.948 34.4904 168.523 34.4904C164.098 34.4715 160.315 30.5809 160.315 25.6516Z" fill="black"/>
<path d="M16.6613 25.0095C16.6613 20.4202 20.3869 16.6807 25.0014 16.6807C29.5969 16.6807 33.3415 20.4013 33.3415 25.0095C33.3415 29.5989 29.6158 33.3384 25.0014 33.3384C20.4058 33.3384 16.6613 29.5989 16.6613 25.0095Z" fill="#1ABCFE"/>
<path d="M0 41.6482C0 37.0588 3.72562 33.3193 8.3401 33.3193H16.6802V41.6482C16.6802 46.2376 12.9546 49.9771 8.3401 49.9771C3.72562 49.9771 0 46.2565 0 41.6482Z" fill="#0ACF83"/>
<path d="M16.6613 0.0415914V16.6805H25.0014C29.5969 16.6805 33.3415 12.9599 33.3415 8.35159C33.3415 3.7622 29.6158 0.0227051 25.0014 0.0227051H16.6613V0.0415914Z" fill="#FF7262"/>
<path d="M0 8.37063C0 12.96 3.72562 16.6995 8.3401 16.6995H16.6802V0.041748H8.3401C3.72562 0.041748 0 3.76236 0 8.37063Z" fill="#F24E1E"/>
<path d="M0 25.0095C0 29.5989 3.72562 33.3384 8.3401 33.3384H16.6802V16.6807H8.3401C3.72562 16.6807 0 20.4202 0 25.0095Z" fill="#A259FF"/>
</g>
<defs>
<clipPath id="clip0_6_700">
<rect width="181.667" height="50" fill="white"/>
</clipPath>
</defs>
</svg>
