<svg width="154" height="50" viewBox="0 0 154 50" fill="none" xmlns="http://www.w3.org/2000/svg">
<g style="mix-blend-mode:luminosity" clip-path="url(#clip0_6_689)">
<path d="M18.8837 0.00439453H20.2472C24.981 0.107204 29.6376 2.00918 32.9821 5.3762C31.7472 6.63561 30.4866 7.84363 29.2774 9.10304C27.3993 7.40669 25.1354 6.09586 22.6656 5.63322C19.0123 4.86215 15.0761 5.55611 12.0146 7.63801C8.67004 9.82271 6.40606 13.5239 5.91724 17.482C5.37697 21.3888 6.48324 25.5012 9.03022 28.5341C11.4743 31.4898 15.2047 33.3404 19.0638 33.4689C22.6656 33.6745 26.4217 32.5693 29.0459 30.0505C31.104 28.277 32.056 25.5783 32.3647 22.9566C28.094 22.9566 23.8233 22.9823 19.5526 22.9566V17.6619H37.5358C38.462 23.3422 37.1242 29.7421 32.802 33.8031C29.9206 36.6817 25.9329 38.3781 21.868 38.7122C17.9318 39.0977 13.8669 38.3524 10.368 36.4504C6.17451 34.2143 2.82999 30.436 1.18346 25.9895C-0.360163 21.9028 -0.38589 17.2764 1.05483 13.164C2.36691 9.41147 4.88816 6.09586 8.12977 3.78265C11.2427 1.49513 15.0246 0.235716 18.8837 0.00439453Z" fill="#3780FF"/>
<path d="M122.049 1.34106H127.555V38.0441C125.728 38.0441 123.876 38.0698 122.049 38.0184C122.075 25.8097 122.049 13.5754 122.049 1.34106Z" fill="#38B137"/>
<path d="M49.7819 14.0637C53.1778 13.4211 56.8568 14.1408 59.661 16.1713C62.208 17.9705 63.9832 20.7977 64.5235 23.882C65.2181 27.4546 64.3434 31.3614 62.0279 34.1887C59.5324 37.3501 55.4418 39.0464 51.4541 38.7894C47.8009 38.5838 44.2505 36.7589 42.0895 33.7774C39.6454 30.4875 39.0537 25.9639 40.3915 22.1085C41.7293 17.9705 45.5112 14.8091 49.7819 14.0637ZM50.5537 18.9471C49.1644 19.307 47.8781 20.1038 46.9519 21.2347C44.4564 24.2161 44.6107 29.0739 47.3635 31.8497C48.9329 33.4433 51.2998 34.1887 53.4866 33.7517C55.519 33.3919 57.2942 32.0297 58.2718 30.2305C59.9698 27.1719 59.481 22.9567 56.8825 20.5664C55.2103 19.0243 52.7662 18.3817 50.5537 18.9471Z" fill="#FA3913"/>
<path d="M77.0526 14.0636C80.9374 13.3183 85.1823 14.3978 88.0895 17.1222C92.8233 21.3631 93.3378 29.3052 89.2987 34.1886C86.8546 37.2729 82.8926 38.9693 78.9821 38.7893C75.2517 38.6865 71.5727 36.836 69.3602 33.7774C66.8647 30.4104 66.3244 25.7839 67.7394 21.8515C69.1544 17.8419 72.8591 14.7833 77.0526 14.0636ZM77.8244 18.9471C76.4351 19.3069 75.1488 20.1037 74.2226 21.2089C71.7528 24.139 71.8557 28.9196 74.5056 31.7212C76.075 33.3918 78.519 34.2143 80.783 33.7517C82.7897 33.3661 84.5906 32.0296 85.5682 30.2304C87.2405 27.1462 86.7517 22.931 84.1275 20.5406C82.4553 18.9985 80.0112 18.3816 77.8244 18.9471Z" fill="#FCBD06"/>
<path d="M100.181 15.5544C103.14 13.7039 107.076 13.1898 110.266 14.7834C111.27 15.2203 112.093 15.9657 112.89 16.711C112.916 16.0171 112.89 15.2974 112.916 14.5777C114.64 14.6034 116.364 14.5777 118.113 14.6034V37.273C118.087 40.6914 117.213 44.3154 114.743 46.8086C112.041 49.5587 107.899 50.4069 104.169 49.8414C100.181 49.2503 96.7081 46.3459 95.1645 42.6705C96.7081 41.9251 98.3289 41.3339 99.924 40.64C100.824 42.7476 102.651 44.5467 104.941 44.958C107.23 45.3692 109.88 44.8038 111.373 42.9018C112.968 40.9484 112.968 38.2754 112.89 35.885C111.707 37.0416 110.343 38.0697 108.697 38.4553C105.121 39.4577 101.185 38.224 98.4318 35.8079C95.6533 33.3919 94.0067 29.6651 94.1611 25.9639C94.2383 21.7744 96.6052 17.7391 100.181 15.5544ZM105.507 18.8443C103.937 19.1014 102.471 19.9752 101.468 21.1833C99.0492 24.0619 99.0492 28.6627 101.493 31.4899C102.883 33.1606 105.121 34.0859 107.282 33.8545C109.314 33.6489 111.192 32.3638 112.196 30.5903C113.894 27.5832 113.611 23.4965 111.321 20.8748C109.906 19.2556 107.642 18.4588 105.507 18.8443Z" fill="#3780FF"/>
<path d="M134.167 16.8652C137.254 13.9865 142.013 13.0098 145.975 14.5263C149.732 15.9399 152.124 19.5125 153.333 23.188C147.751 25.5012 142.194 27.7887 136.611 30.1019C137.383 31.567 138.566 32.9035 140.161 33.4432C142.399 34.24 145.075 33.9573 146.953 32.4665C147.699 31.9011 148.291 31.1557 148.857 30.4361C150.272 31.387 151.687 32.3123 153.102 33.2633C151.095 36.2705 147.725 38.3781 144.097 38.7122C140.084 39.2006 135.813 37.6584 133.215 34.5227C128.944 29.5879 129.356 21.3117 134.167 16.8652ZM136.919 21.6201C136.045 22.8795 135.685 24.4217 135.71 25.9381C139.441 24.396 143.171 22.8538 146.902 21.286C146.284 19.8467 144.792 18.9728 143.274 18.7415C140.83 18.3045 138.283 19.6153 136.919 21.6201Z" fill="#FA3913"/>
</g>
<defs>
<clipPath id="clip0_6_689">
<rect width="153.333" height="50" fill="white"/>
</clipPath>
</defs>
</svg>
