<svg width="46" height="46" viewBox="0 0 46 46" fill="none" xmlns="http://www.w3.org/2000/svg">
<path fill-rule="evenodd" clip-rule="evenodd" d="M44.7454 4.98218L43.0535 6.67407L40.5586 4.96425L38.547 2.17536V2.16756L40.2389 0.475672C40.537 0.172624 40.9443 0.00195312 41.3694 0.00195312C41.7945 0.00195312 42.2018 0.172624 42.4999 0.475672L44.7454 2.72113C45.0484 3.01925 45.2191 3.42655 45.2191 3.85166C45.2191 4.27676 45.0484 4.68406 44.7454 4.98218Z" fill="#FF5364"/>
<path fill-rule="evenodd" clip-rule="evenodd" d="M8.5764 10.9155H43.6617C44.5218 10.9181 45.2185 11.6147 45.221 12.4749V43.6618C45.2185 44.5219 44.5218 45.2186 43.6617 45.2211H5.68382C2.67996 45.2638 0.17494 42.934 0 39.935V35.8651L8.5764 10.9155Z" fill="#2980BA"/>
<path fill-rule="evenodd" clip-rule="evenodd" d="M8.5764 1.55935V32.7463C8.57384 33.6064 7.8772 34.3031 7.01706 34.3056H5.45771C2.4435 34.3056 0 36.7491 0 39.7633V5.45771C0 2.4435 2.4435 0 5.45771 0H7.01706C7.8772 0.00256887 8.57384 0.699209 8.5764 1.55935Z" fill="#3B97D3"/>
<path d="M35.0853 24.1696C34.6547 24.1696 34.3056 24.5187 34.3056 24.9493V28.8477H15.5934V20.2713H27.0546C27.4852 20.2713 27.8343 19.9222 27.8343 19.4916C27.8343 19.061 27.4852 18.7119 27.0546 18.7119H11.6951C11.2645 18.7119 10.9154 19.061 10.9154 19.4916C10.9154 19.9222 11.2645 20.2713 11.6951 20.2713H14.0341V41.3224C14.0341 41.753 14.3832 42.1021 14.8138 42.1021C15.2444 42.1021 15.5934 41.753 15.5934 41.3224V30.407H24.1698V36.6444H18.7121C18.2815 36.6444 17.9325 36.9935 17.9325 37.4241C17.9325 37.8547 18.2815 38.2037 18.7121 38.2037H34.3056C35.1668 38.2037 35.8649 37.5056 35.8649 36.6444V24.9493C35.8649 24.5187 35.5159 24.1696 35.0853 24.1696ZM25.7292 36.6444V30.407H34.3056V36.6444H25.7292Z" fill="white"/>
<path fill-rule="evenodd" clip-rule="evenodd" d="M40.8003 8.93522L31.1947 18.533L28.0682 17.153L26.6882 14.0265L36.2937 4.42871L39.7633 5.45788L40.8003 8.93522Z" fill="#F3D55B"/>
<path fill-rule="evenodd" clip-rule="evenodd" d="M36.2955 4.44678L38.5474 2.18851L43.0579 6.68623L40.806 8.9445L36.2955 4.44678Z" fill="#BDC3C7"/>
<path fill-rule="evenodd" clip-rule="evenodd" d="M26.6885 14.0266L26.6804 14.0186L26.6885 14.0266Z" fill="#FF5364"/>
<path fill-rule="evenodd" clip-rule="evenodd" d="M31.2028 18.5408L31.1947 18.5327L31.2028 18.5408Z" fill="#FF5364"/>
<path fill-rule="evenodd" clip-rule="evenodd" d="M31.1947 18.5329L31.1869 18.5485C30.8289 18.9025 30.3618 19.125 29.8614 19.18L27.1949 19.4841C26.7975 19.5234 26.4034 19.3825 26.121 19.1001C25.8386 18.8177 25.6976 18.4235 25.7369 18.0261L26.0332 15.3752C26.0881 14.8631 26.3197 14.3862 26.6882 14.0264L31.1947 18.5329Z" fill="#F9EAB0"/>
</svg>
