<svg width="48" height="46" viewBox="0 0 48 46" fill="none" xmlns="http://www.w3.org/2000/svg">
<path fill-rule="evenodd" clip-rule="evenodd" d="M0.00807779 6.68191L0 6.67383L0.00807779 6.68191Z" fill="#FF5364"/>
<path d="M45.446 15.0298H7.22641C6.98926 15.1409 6.80794 15.2287 6.80794 15.2287L5.91473 16.446V43.7879L6.44405 44.675L7.4534 45.221H45.446C46.5188 45.221 47.3885 44.3513 47.3885 43.2785V16.9723C47.3885 15.8995 46.5188 15.0298 45.446 15.0298ZM11.5364 21.3825C10.62 21.3825 9.87714 20.6397 9.87714 19.7233C9.87714 18.807 10.62 18.0641 11.5364 18.0641C12.4527 18.0641 13.1956 18.807 13.1956 19.7233C13.1956 20.6398 12.4527 21.3825 11.5364 21.3825ZM38.0196 21.3825C37.1033 21.3825 36.3604 20.6397 36.3604 19.7233C36.3604 18.807 37.1033 18.0641 38.0196 18.0641C38.936 18.0641 39.6789 18.807 39.6789 19.7233C39.6789 20.6398 38.936 21.3825 38.0196 21.3825Z" fill="#FFD500"/>
<path d="M6.38399 43.2785V16.9723C6.38399 15.8995 7.2537 15.0298 8.32646 15.0298H4.10995C3.03719 15.0298 2.16748 15.8995 2.16748 16.9723V43.2785C2.16748 44.3513 3.03719 45.221 4.10995 45.221H8.32646C7.2537 45.221 6.38399 44.3513 6.38399 43.2785Z" fill="#FBC700"/>
<path d="M7.35467 31.2038C7.427 31.5043 7.69223 31.7187 8.00127 31.7263C8.00693 31.7264 8.01258 31.7265 8.01823 31.7265C8.32029 31.7265 8.58738 31.5275 8.67279 31.2364L9.67578 27.8218L10.6787 31.2364C10.7658 31.533 11.0411 31.7336 11.3503 31.7264C11.6592 31.7188 11.9246 31.5044 11.9969 31.2039L13.4177 25.3035C13.506 24.9371 13.2805 24.5685 12.914 24.4803C12.5476 24.3921 12.1791 24.6176 12.0909 24.984L11.2682 28.4004L10.3306 25.2081C10.2453 24.9175 9.97872 24.718 9.67587 24.718C9.37301 24.718 9.10645 24.9176 9.02113 25.2081L8.08341 28.4005L7.26078 24.984C7.17255 24.6176 6.80362 24.3922 6.43761 24.4803C6.07125 24.5685 5.84568 24.9371 5.93391 25.3035L7.35467 31.2038Z" fill="#ED5469"/>
<path d="M17.2398 31.7262C19.2428 31.7262 20.8724 30.0966 20.8724 28.0936C20.8724 26.0906 19.2428 24.4609 17.2398 24.4609C15.2368 24.4609 13.6072 26.0906 13.6072 28.0936C13.6072 30.0966 15.2368 31.7262 17.2398 31.7262ZM17.2398 25.8258C18.4903 25.8258 19.5076 26.8432 19.5076 28.0936C19.5076 29.3441 18.4902 30.3615 17.2398 30.3615C15.9894 30.3615 14.972 29.3441 14.972 28.0936C14.972 26.8431 15.9893 25.8258 17.2398 25.8258Z" fill="#ED5469"/>
<path d="M26.056 26.6185C26.056 25.4288 25.0881 24.4609 23.8984 24.4609H22.139C21.7622 24.4609 21.4567 24.7664 21.4567 25.1433V31.0438C21.4567 31.4206 21.7622 31.7262 22.139 31.7262C22.5159 31.7262 22.8214 31.4206 22.8214 31.0438V28.9276L24.7756 31.4606C24.9101 31.6348 25.1121 31.7262 25.3164 31.7262C25.4619 31.7262 25.6085 31.6799 25.7327 31.5841C26.0311 31.3539 26.0864 30.9253 25.8562 30.627L24.385 28.72C25.3411 28.4987 26.056 27.6408 26.056 26.6185ZM23.8985 27.4113H22.8215V25.8258H23.8985C24.3356 25.8258 24.6912 26.1814 24.6912 26.6185C24.6912 27.0556 24.3355 27.4113 23.8985 27.4113Z" fill="#ED5469"/>
<path d="M42.9587 24.461C42.5818 24.461 42.2763 24.7665 42.2763 25.1434V28.7592L39.6593 24.7691C39.4938 24.5169 39.1824 24.4032 38.8934 24.4895C38.6043 24.5759 38.4063 24.8417 38.4063 25.1434V31.0438C38.4063 31.4207 38.7118 31.7262 39.0887 31.7262C39.4656 31.7262 39.7711 31.4207 39.7711 31.0438V27.428L42.3881 31.418C42.5538 31.6707 42.8654 31.7839 43.154 31.6977C43.4431 31.6113 43.6411 31.3454 43.6411 31.0438V25.1434C43.6411 24.7665 43.3356 24.461 42.9587 24.461Z" fill="#ED5469"/>
<path d="M36.1752 31.7264C36.5521 31.7264 36.8576 31.4209 36.8576 31.044V25.1436C36.8576 24.7667 36.5521 24.4612 36.1752 24.4612C35.7984 24.4612 35.4929 24.7667 35.4929 25.1436V31.044C35.4929 31.4209 35.7984 31.7264 36.1752 31.7264Z" fill="#ED5469"/>
<path d="M33.3964 35.9775C33.7732 35.9775 34.0787 35.672 34.0787 35.2952C34.0787 34.9183 33.7732 34.6128 33.3964 34.6128H31.4536C31.0767 34.6128 30.7712 34.9183 30.7712 35.2952V40.2599C30.7712 40.6367 31.0767 40.9422 31.4536 40.9422H33.3964C33.7732 40.9422 34.0787 40.6367 34.0787 40.2599C34.0787 39.883 33.7732 39.5775 33.3964 39.5775H32.136V38.4599H33.2883C33.6652 38.4599 33.9707 38.1544 33.9707 37.7776C33.9707 37.4007 33.6652 37.0952 33.2883 37.0952H32.136V35.9776H33.3964V35.9775Z" fill="#ED5469"/>
<path d="M17.7996 34.6128C16.0545 34.6128 14.6348 36.0325 14.6348 37.7776C14.6348 39.5226 16.0545 40.9423 17.7996 40.9423C19.5447 40.9423 20.9644 39.5226 20.9644 37.7776C20.9644 36.0324 19.5447 34.6128 17.7996 34.6128ZM17.7996 39.5775C16.8071 39.5775 15.9997 38.77 15.9997 37.7776C15.9997 36.7851 16.8071 35.9776 17.7996 35.9776C18.7921 35.9776 19.5995 36.7851 19.5995 37.7776C19.5995 38.7699 18.7921 39.5775 17.7996 39.5775Z" fill="#ED5469"/>
<path d="M14.4557 36.5364C14.4557 35.4757 13.5928 34.6128 12.5321 34.6128H11.0518C10.6749 34.6128 10.3694 34.9183 10.3694 35.2952V40.2599C10.3694 40.6367 10.6749 40.9422 11.0518 40.9422C11.4286 40.9422 11.7341 40.6367 11.7341 40.2599V38.7968L13.1845 40.6767C13.3189 40.851 13.521 40.9424 13.7253 40.9424C13.8708 40.9424 14.0175 40.896 14.1416 40.8002C14.4401 40.57 14.4954 40.1415 14.2651 39.8432L13.1251 38.3655C13.8963 38.1147 14.4557 37.39 14.4557 36.5364ZM11.7342 35.9775H12.5321C12.8402 35.9775 13.0909 36.2282 13.0909 36.5363C13.0909 36.8443 12.8402 37.095 12.5321 37.095H11.7342V35.9775Z" fill="#ED5469"/>
<path d="M30.1976 36.5364C30.1976 35.4757 29.3347 34.6128 28.2741 34.6128H26.7937C26.4168 34.6128 26.1113 34.9183 26.1113 35.2952V40.2599C26.1113 40.6367 26.4168 40.9422 26.7937 40.9422C27.1706 40.9422 27.4761 40.6367 27.4761 40.2599V38.7967L28.9264 40.6767C29.0609 40.8509 29.2629 40.9423 29.4672 40.9423C29.6128 40.9423 29.7594 40.896 29.8836 40.8001C30.182 40.57 30.2373 40.1414 30.0071 39.8431L28.8671 38.3654C29.6382 38.1147 30.1976 37.39 30.1976 36.5364ZM27.4762 35.9775H28.2742C28.5822 35.9775 28.8329 36.2282 28.8329 36.5363C28.8329 36.8443 28.5822 37.095 28.2742 37.095H27.4762V35.9775Z" fill="#ED5469"/>
<path d="M8.07767 34.6128H6.5973C6.22042 34.6128 5.91492 34.9183 5.91492 35.2952V40.2599C5.91492 40.6367 6.22042 40.9422 6.5973 40.9422C6.97417 40.9422 7.27967 40.6367 7.27967 40.2599V38.4599H8.07767C9.13833 38.4599 10.0012 37.597 10.0012 36.5364C10.0012 35.4757 9.13833 34.6128 8.07767 34.6128ZM8.07767 37.0951H7.27967V35.9775H8.07767C8.38573 35.9775 8.63639 36.2282 8.63639 36.5363C8.63639 36.8444 8.38573 37.0951 8.07767 37.0951Z" fill="#ED5469"/>
<path d="M37.2118 37.1373C36.334 36.9061 36.0414 36.5608 36.0414 36.4888C36.0414 36.2884 36.2988 36.0089 36.7179 36.0089C37.1879 36.0089 37.5854 36.3956 37.6 36.41C37.8617 36.6778 38.291 36.6846 38.5613 36.4244C38.8328 36.163 38.8409 35.731 38.5795 35.4595C38.4992 35.3761 37.764 34.644 36.7179 34.644C35.5923 34.644 34.6766 35.4716 34.6766 36.4888C34.6766 37.3734 35.4739 38.0908 36.8641 38.4571C37.4918 38.6224 37.4918 38.828 37.4918 39.0457C37.4918 39.1849 37.3399 39.5462 36.6469 39.5462C36.146 39.5462 35.8509 39.2932 35.7196 39.1424C35.4721 38.8582 35.041 38.8285 34.7568 39.0761C34.4726 39.3236 34.4429 39.7546 34.6904 40.0389C34.9741 40.3646 35.6056 40.911 36.6469 40.911C38.0821 40.911 38.8566 39.95 38.8566 39.0457C38.8564 38.067 38.3031 37.4249 37.2118 37.1373Z" fill="#ED5469"/>
<path d="M41.9964 37.1373C41.1187 36.9061 40.8261 36.5608 40.8261 36.4888C40.8261 36.2884 41.0835 36.0089 41.5025 36.0089C41.9726 36.0089 42.3699 36.3954 42.3846 36.41C42.6464 36.6778 43.0757 36.6847 43.3459 36.4244C43.6174 36.163 43.6255 35.731 43.3641 35.4595C43.2837 35.3761 42.5486 34.644 41.5025 34.644C40.3769 34.644 39.4611 35.4716 39.4611 36.4888C39.4611 37.3734 40.2584 38.0908 41.6487 38.4571C42.2763 38.6224 42.2763 38.828 42.2763 39.0457C42.2763 39.1849 42.1245 39.5462 41.4314 39.5462C40.9211 39.5462 40.6254 39.2863 40.4946 39.1313C40.2514 38.8434 39.8209 38.8071 39.533 39.0503C39.245 39.2935 39.2087 39.724 39.4519 40.0119C39.6802 40.2822 40.3302 40.911 41.4314 40.911C42.8667 40.911 43.6412 39.9499 43.6412 39.0456C43.6411 38.067 43.0878 37.4249 41.9964 37.1373Z" fill="#ED5469"/>
<path d="M24.747 37.4957H23.8831C23.5062 37.4957 23.2007 37.8012 23.2007 38.178C23.2007 38.5549 23.5062 38.8604 23.8831 38.8604H24.0644C24.0572 39.257 23.7323 39.5773 23.334 39.5773C22.9313 39.5773 22.6035 39.2496 22.6035 38.8468V36.7079C22.6035 36.3052 22.9312 35.9774 23.334 35.9774C23.6634 35.9774 23.9534 36.1989 24.0393 36.5161C24.1377 36.8798 24.5122 37.095 24.8763 36.9965C25.2401 36.898 25.4552 36.5232 25.3567 36.1594C25.1101 35.2486 24.2784 34.6125 23.3341 34.6125C22.1788 34.6125 21.2388 35.5525 21.2388 36.7078V38.8467C21.2388 40.0021 22.1788 40.9421 23.3341 40.9421C24.4894 40.9421 25.4295 40.0022 25.4295 38.8467V38.1779C25.4295 37.8013 25.1239 37.4957 24.747 37.4957Z" fill="#ED5469"/>
<path d="M31.1053 30.5646L28.6677 28.0936L31.1053 25.6226C31.3699 25.3543 31.367 24.9222 31.0988 24.6575C30.8304 24.3929 30.3984 24.3958 30.1337 24.6641L28.052 26.7744V25.1433C28.052 24.7664 27.7465 24.4609 27.3696 24.4609C26.9928 24.4609 26.6873 24.7664 26.6873 25.1433V31.0438C26.6873 31.4206 26.9928 31.7262 27.3696 31.7262C27.7465 31.7262 28.052 31.4206 28.052 31.0438V29.4128L30.1337 31.523C30.2672 31.6584 30.4433 31.7262 30.6195 31.7262C30.7926 31.7262 30.9659 31.6607 31.0988 31.5296C31.367 31.2649 31.3699 30.8329 31.1053 30.5646Z" fill="#ED5469"/>
<path d="M12.7538 18.813C12.6092 18.813 12.4635 18.7673 12.3397 18.6726C12.0404 18.4436 11.9833 18.0153 12.2122 17.716L23.5733 2.86066C23.8022 2.56134 24.2306 2.50419 24.5299 2.73312C24.8292 2.96206 24.8864 3.39042 24.6574 3.68974L13.2963 18.5451C13.162 18.7207 12.959 18.813 12.7538 18.813Z" fill="#DBEDFF"/>
<path d="M36.9464 19.0022C36.7412 19.0022 36.5382 18.91 36.4039 18.7343L25.0094 3.83528C24.7805 3.53595 24.8375 3.10768 25.1369 2.87866C25.4363 2.64973 25.8645 2.70678 26.0936 3.0062L37.4881 17.9052C37.717 18.2045 37.66 18.6329 37.3606 18.8618C37.2367 18.9564 37.0911 19.0022 36.9464 19.0022Z" fill="#DBEDFF"/>
<g clip-path="url(#clip0_6_636)">
<path d="M25.631 0.17749H25.1648L24.2549 1.38768L24.198 2.73804L24.6302 3.7874L25.1078 4.02622L25.6309 4.099C26.3872 3.76956 26.9161 3.01582 26.9161 2.13816C26.9161 1.2605 26.3873 0.506933 25.631 0.17749Z" fill="#60B9FE"/>
<path d="M24.3459 2.1382C24.3459 1.26062 24.8747 0.506882 25.631 0.177351C25.3697 0.0635037 25.0813 0 24.778 0C23.5972 0 22.6398 0.957326 22.6398 2.1382C22.6398 3.31907 23.5972 4.27639 24.778 4.27639C25.0813 4.27639 25.3697 4.21289 25.631 4.09895C24.8747 3.7696 24.3459 3.01585 24.3459 2.1382Z" fill="#1CA8FF"/>
</g>
<defs>
<clipPath id="clip0_6_636">
<rect width="45.221" height="45.221" fill="white" transform="translate(2.16748)"/>
</clipPath>
</defs>
</svg>
