<svg width="45" height="45" viewBox="0 0 45 45" fill="none" xmlns="http://www.w3.org/2000/svg">
<path d="M44.061 2.99357L27.6066 14.8892L24.9067 16.8456C23.4763 17.9023 21.5239 17.9023 20.0936 16.8456L17.3936 14.8892L0.919678 3.01311C1.83597 1.73171 3.31611 0.973343 4.89144 0.978296H40.1088C41.6726 0.979671 43.1415 1.72868 44.061 2.99357Z" fill="#FFD54F"/>
<path d="M0.919638 3.01318L17.3936 14.8892L1.42836 30.8544C0.511612 29.9354 -0.00225008 28.6896 4.27182e-05 27.3914V5.86973C-0.00426774 4.84403 0.317733 3.84363 0.919638 3.01318Z" fill="#FFC107"/>
<path d="M45 5.86974V27.3915C45.0023 28.6897 44.4885 29.9355 43.5718 30.8545L27.6066 14.8893L44.0609 2.99365C44.6718 3.82805 45.0006 4.8355 45 5.86974Z" fill="#FFC107"/>
<path d="M29.3478 36.1956C28.0487 36.1956 27.3913 35.2174 27.3913 33.2609C27.4233 30.5272 25.2333 28.2853 22.4996 28.2533C19.7659 28.2213 17.524 30.4114 17.492 33.145C17.46 35.8787 19.6501 38.1206 22.3838 38.1526C23.8489 38.1697 25.2463 37.5369 26.1998 36.4246C26.8494 37.5378 28.0599 38.202 29.3478 38.1521C33.2609 38.1521 33.2609 34.47 33.2609 33.2609C33.261 27.3178 28.4433 22.4999 22.5002 22.4998C16.5572 22.4996 11.7393 27.3174 11.7391 33.2605C11.739 39.2035 16.5568 44.0214 22.4998 44.0216C25.292 44.0217 27.9749 42.9364 29.9817 40.9951C30.3702 40.6169 30.3785 39.9955 30.0004 39.607C29.6221 39.2185 29.0007 39.2102 28.6122 39.5883C25.1124 42.964 19.5387 42.8633 16.163 39.3635C12.7874 35.8636 12.8881 30.2899 16.3879 26.9143C19.8877 23.5387 25.4614 23.6394 28.8371 27.1392C30.4222 28.7827 31.3069 30.9777 31.3044 33.261C31.3044 35.4542 30.8114 36.1956 29.3478 36.1956ZM22.5001 36.1956C20.8792 36.1956 19.5653 34.8817 19.5653 33.2609C19.5653 31.64 20.8792 30.3261 22.5001 30.3261C24.1209 30.3261 25.4348 31.64 25.4348 33.2609C25.4348 34.8817 24.1209 36.1956 22.5001 36.1956Z" fill="#455A64"/>
<path d="M27.6066 14.8892L24.9066 16.8456C23.4763 17.9024 21.5239 17.9024 20.0935 16.8456L17.3936 14.8892L1.42834 30.8544C2.34739 31.7711 3.5932 32.285 4.89139 32.2826H9.83154C10.3608 25.2865 16.4612 20.0441 23.4574 20.5734C29.7175 21.047 34.693 26.0224 35.1666 32.2826H40.1088C41.4069 32.2849 42.6527 31.7711 43.5718 30.8544L27.6066 14.8892Z" fill="#FFA000"/>
</svg>
