<svg width="167" height="50" viewBox="0 0 167 50" fill="none" xmlns="http://www.w3.org/2000/svg">
<g style="mix-blend-mode:luminosity" clip-path="url(#clip0_6_681)">
<path d="M25.0073 0C11.1964 0 0 11.1928 0 24.9995C0 38.8078 11.1964 50 25.0073 50C38.8187 50 50.0145 38.8078 50.0145 24.9995C50.0145 11.1937 38.8193 0.00119321 25.007 0.00119321L25.0073 0ZM36.4754 36.0565C36.0263 36.793 35.0666 37.0238 34.3322 36.5751C28.4599 32.987 21.0685 32.1765 12.3637 34.1644C11.5249 34.3567 10.6888 33.831 10.4977 32.9927C10.3056 32.1541 10.8291 31.3182 11.67 31.1272C21.196 28.95 29.3671 29.8871 35.9585 33.9137C36.6931 34.3645 36.926 35.3227 36.4751 36.0571L36.4754 36.0565ZM39.5363 29.2503C38.9707 30.1677 37.7708 30.4555 36.8544 29.8922C30.134 25.7623 19.8862 24.5661 11.9355 26.9788C10.9044 27.2902 9.81531 26.7092 9.50235 25.6802C9.19179 24.6494 9.77321 23.5627 10.8025 23.2493C19.8845 20.4944 31.1746 21.8288 38.8939 26.571C39.8107 27.1353 40.1004 28.3353 39.536 29.2506L39.5363 29.2503ZM39.7991 22.162C31.7381 17.3763 18.4418 16.9362 10.7467 19.271C9.511 19.6457 8.20424 18.9483 7.82977 17.713C7.45531 16.4771 8.15228 15.1716 9.38886 14.7961C18.2223 12.1153 32.9069 12.6332 42.1862 18.1402C43.2977 18.7996 43.6623 20.2347 43.0035 21.3443C42.3466 22.4555 40.9072 22.8217 39.7994 22.162H39.7991ZM68.0365 23.0791C63.7188 22.0498 62.9501 21.3273 62.9501 19.8093C62.9501 18.3752 64.3008 17.41 66.3093 17.41C68.2563 17.41 70.1868 18.1429 72.2109 19.6517C72.2721 19.6974 72.3489 19.7155 72.4244 19.7036C72.5 19.6923 72.5668 19.6508 72.611 19.5884L74.7193 16.6174C74.8059 16.495 74.7823 16.3263 74.6656 16.2329C72.2566 14.3005 69.5439 13.361 66.3732 13.361C61.7112 13.361 58.4547 16.158 58.4547 20.1598C58.4547 24.4511 61.2638 25.9707 66.1182 27.1436C70.2499 28.095 70.9472 28.8921 70.9472 30.317C70.9472 31.8959 69.5371 32.8775 67.2679 32.8775C64.7475 32.8775 62.6918 32.0288 60.3922 30.0378C60.3351 29.9886 60.2569 29.9662 60.1846 29.9704C60.1085 29.9767 60.0389 30.0119 59.9905 30.0701L57.6267 32.8825C57.5275 32.9993 57.5401 33.1736 57.6547 33.2745C60.3304 35.6625 63.6211 36.9238 67.1723 36.9238C72.196 36.9238 75.4423 34.1797 75.4423 29.9325C75.4512 26.3471 73.3042 24.3619 68.0455 23.083L68.0365 23.0791ZM86.8077 18.822C84.6302 18.822 82.8441 19.6794 81.3713 21.4363V19.4588C81.3713 19.3027 81.2447 19.1755 81.0888 19.1755H77.2226C77.0665 19.1755 76.9401 19.3027 76.9401 19.4588V41.4313C76.9401 41.5874 77.0664 41.7146 77.2226 41.7146H81.0888C81.2447 41.7146 81.3713 41.5874 81.3713 41.4313V34.4955C82.8444 36.1482 84.6308 36.9557 86.8077 36.9557C90.8537 36.9557 94.9496 33.842 94.9496 27.8899C94.9555 21.9363 90.8585 18.8218 86.8122 18.8218L86.8077 18.822ZM90.4538 27.8899C90.4538 30.9209 88.5863 33.036 85.9121 33.036C83.2685 33.036 81.2743 30.8248 81.2743 27.8899C81.2743 24.9554 83.2685 22.7439 85.9121 22.7439C88.543 22.7435 90.4542 24.9073 90.4542 27.8896L90.4538 27.8899ZM105.448 18.822C100.237 18.822 96.1548 22.8331 96.1548 27.9547C96.1548 33.0205 100.209 36.9894 105.384 36.9894C110.613 36.9894 114.707 32.9918 114.707 27.8899C114.707 22.8056 110.64 18.8226 105.447 18.8226L105.448 18.822ZM105.448 33.0661C102.676 33.0661 100.587 30.84 100.587 27.8884C100.587 24.9243 102.604 22.7734 105.384 22.7734C108.173 22.7734 110.276 24.9995 110.276 27.9532C110.276 30.9167 108.246 33.0661 105.448 33.0661H105.448ZM125.834 19.1755H121.58V14.8271C121.58 14.6713 121.454 14.5441 121.298 14.5441H117.432C117.276 14.5441 117.149 14.6713 117.149 14.8271V19.1755H115.29C115.134 19.1755 115.008 19.3027 115.008 19.4588V22.7806C115.008 22.9364 115.134 23.0639 115.29 23.0639H117.149V31.6589C117.149 35.1323 118.878 36.8933 122.288 36.8933C123.675 36.8933 124.826 36.607 125.91 35.9923C125.998 35.9431 126.053 35.8482 126.053 35.7473V32.584C126.053 32.4864 126.002 32.3942 125.918 32.3431C125.834 32.2903 125.729 32.2876 125.643 32.3303C124.898 32.7049 124.178 32.8778 123.374 32.8778C122.133 32.8778 121.58 32.3147 121.58 31.0529V23.0654H125.834C125.99 23.0654 126.116 22.9382 126.116 22.7821V19.4606C126.122 19.3045 125.997 19.1773 125.838 19.1773L125.834 19.1755ZM140.658 19.1925V18.6584C140.658 17.0873 141.26 16.3866 142.612 16.3866C143.418 16.3866 144.065 16.5466 144.79 16.7885C144.88 16.8165 144.973 16.8025 145.045 16.749C145.12 16.6956 145.162 16.6099 145.162 16.5192V13.2622C145.162 13.1377 145.082 13.0276 144.962 12.9908C144.196 12.763 143.216 12.5293 141.749 12.5293C138.178 12.5293 136.29 14.5396 136.29 18.3408V19.1588H134.433C134.277 19.1588 134.149 19.2859 134.149 19.4418V22.7806C134.149 22.9364 134.277 23.0638 134.433 23.0638H136.29V36.3213C136.29 36.4774 136.416 36.6046 136.572 36.6046H140.438C140.594 36.6046 140.722 36.4774 140.722 36.3213V23.0648H144.331L149.861 36.3189C149.233 37.7116 148.616 37.9886 147.773 37.9886C147.092 37.9886 146.375 37.7853 145.641 37.3841C145.572 37.3462 145.491 37.3399 145.416 37.3629C145.342 37.3889 145.28 37.4438 145.249 37.5154L143.939 40.3894C143.876 40.5252 143.93 40.6847 144.06 40.7551C145.428 41.4957 146.663 41.8119 148.19 41.8119C151.044 41.8119 152.622 40.4825 154.013 36.9061L160.72 19.5794C160.754 19.4922 160.744 19.3937 160.691 19.3164C160.637 19.2397 160.552 19.1934 160.458 19.1934H156.433C156.313 19.1934 156.205 19.2701 156.165 19.3833L152.042 31.1567L147.526 19.3755C147.485 19.266 147.379 19.1934 147.262 19.1934H140.657L140.658 19.1925ZM132.063 19.1755H128.197C128.041 19.1755 127.914 19.3027 127.914 19.4588V36.3213C127.914 36.4774 128.041 36.6046 128.197 36.6046H132.063C132.219 36.6046 132.347 36.4774 132.347 36.3213V19.46C132.347 19.4227 132.34 19.3858 132.325 19.3514C132.311 19.317 132.29 19.2857 132.264 19.2594C132.238 19.233 132.206 19.2122 132.172 19.198C132.137 19.1838 132.1 19.1766 132.063 19.1767L132.063 19.1755ZM130.152 11.4976C128.621 11.4976 127.378 12.7371 127.378 14.2683C127.378 15.8003 128.621 17.0413 130.152 17.0413C131.683 17.0413 132.925 15.8003 132.925 14.2683C132.925 12.7374 131.683 11.4976 130.154 11.4976H130.152ZM164.022 24.5971C162.492 24.5971 161.301 23.3687 161.301 21.8769C161.301 20.3852 162.507 19.1427 164.036 19.1427C165.566 19.1427 166.757 20.3708 166.757 21.8614C166.757 23.3531 165.55 24.5971 164.021 24.5971H164.022ZM164.037 19.4131C162.643 19.4131 161.589 20.5207 161.589 21.8769C161.589 23.2325 162.635 24.3252 164.023 24.3252C165.416 24.3252 166.472 23.2185 166.472 21.8614C166.472 20.5058 165.423 19.4131 164.038 19.4131H164.037ZM164.64 22.1411L165.409 23.2182H164.761L164.068 22.2301H163.472V23.2182H162.929V20.3631H164.202C164.866 20.3631 165.302 20.7025 165.302 21.2739C165.305 21.742 165.033 22.028 164.642 22.1411H164.64V22.1411ZM164.18 20.853H163.472V21.756H164.18C164.534 21.756 164.745 21.5832 164.745 21.3041C164.745 21.0103 164.533 20.853 164.18 20.853H164.18V20.853Z" fill="#2EBD59"/>
</g>
<defs>
<clipPath id="clip0_6_681">
<rect width="166.757" height="50" fill="white"/>
</clipPath>
</defs>
</svg>
