<svg width="153" height="50" viewBox="0 0 153 50" fill="none" xmlns="http://www.w3.org/2000/svg">
<g style="mix-blend-mode:luminosity">
<path fill-rule="evenodd" clip-rule="evenodd" d="M10.5597 50V0H0V50H10.5597Z" fill="#F6D330"/>
<path fill-rule="evenodd" clip-rule="evenodd" d="M16.017 39.5357H10.335V15.0216H2.38202V10.2117H23.97V15.0216H16.017V39.5357Z" fill="black"/>
<path fill-rule="evenodd" clip-rule="evenodd" d="M38.445 33.3207C37.0436 38.6539 33.0285 40.6697 29.5818 40.6697C23.8997 40.6697 19.5436 37.6699 19.5436 28.5446C19.5436 25.8789 20.3766 17.3367 29.2026 17.3367C33.1795 17.3367 38.6715 19.4202 38.6715 29.5443V29.7881H24.3145C24.4663 31.4542 25.302 36.5349 29.5818 36.5349C31.0587 36.5349 33.3721 34.9026 33.7886 33.3199H38.445V33.3207ZM33.629 26.2294C33.2957 22.2881 31.004 21.0967 29.1297 21.0967C26.3797 21.0967 24.9211 23.0213 24.5878 26.2294H33.629ZM29.5679 15.3356H26.5403L29.3023 10.6038H34.3379L29.5679 15.3356ZM66.614 33.3207C65.2126 38.6539 61.1975 40.6697 57.7508 40.6697C52.0696 40.6697 47.7135 37.6699 47.7135 28.5446C47.7135 25.8789 48.5465 17.3367 57.3725 17.3367C61.3494 17.3367 66.8414 19.4202 66.8414 29.5443V29.7881H52.4835C52.6345 31.4542 53.4702 36.5349 57.7499 36.5349C59.2277 36.5349 61.5411 34.9026 61.9577 33.3199H66.614V33.3207ZM61.798 26.2294C61.4648 22.2881 59.173 21.0967 57.2978 21.0967C54.5479 21.0967 53.0892 23.0213 52.756 26.2294H61.798ZM57.7369 15.3356H54.7093L57.4714 10.6038H62.507L57.7369 15.3356ZM45.4391 39.7673H40.6682V10.4424H45.4391V39.7673ZM68.6246 18.2904H72.9018V23.1055H72.9781C74.0767 21.0602 75.289 17.7602 78.5083 17.7602C78.8494 17.7602 79.1895 17.7975 79.5323 17.8357V22.9485C79.0767 22.873 78.4919 22.7402 78.0172 22.873C74.1947 23.9368 73.5292 27.2621 73.1309 29.2805V39.7716H68.6264V18.2904H68.6246ZM98.9492 35.7123C98.6732 39.1017 99.7084 39.9174 99.7084 39.9174H94.482C94.1479 38.9073 94.331 37.7853 94.206 36.5722C92.874 37.9059 90.8252 40.6992 86.2418 40.484C82.9113 40.3261 79.4915 38.6652 79.4915 34.218C79.4915 30.0128 82.2423 27.8712 85.9502 27.3454L91.1992 26.5774C92.1165 26.4551 95.0825 27.2621 93.7739 23.8153C92.9278 21.5852 90.9077 21.3084 89.4082 21.3084C86.4917 21.3084 84.9271 23.0465 84.7614 24.2996H80.2005C81.378 18.7477 85.5745 17.8452 90.1172 17.8452C93.2428 17.8452 98.9509 18.7746 98.9509 24.0705V35.7123H98.9492ZM93.6359 28.7138C92.9955 29.2527 91.3528 29.2154 88.6958 29.6562C86.3129 30.097 84.928 31.2086 84.928 34.0462C84.928 36.4429 86.6704 37.1762 87.9079 37.1762C90.7498 37.1762 93.6368 35.2185 93.6368 32.0391V28.7138H93.6359ZM151.747 35.7123C151.471 39.1017 152.506 39.9174 152.506 39.9174H147.28C146.946 38.9073 147.129 37.7853 147.004 36.5722C145.672 37.9059 143.623 40.6992 139.039 40.484C135.709 40.3261 132.289 38.6652 132.289 34.218C132.289 30.0128 135.04 27.8712 138.748 27.3454L143.997 26.5774C144.914 26.4551 147.88 27.2621 146.572 23.8153C145.725 21.5852 143.705 21.3084 142.206 21.3084C139.289 21.3084 137.725 23.0465 137.559 24.2996H132.998C134.177 18.7477 138.374 17.8452 142.915 17.8452C146.04 17.8452 151.749 18.7746 151.749 24.0705V35.7123H151.747ZM146.435 28.7138C145.793 29.2527 144.15 29.2154 141.493 29.6562C139.111 30.097 137.726 31.2086 137.726 34.0462C137.726 36.4429 139.468 37.1762 140.705 37.1762C143.547 37.1762 146.436 35.2185 146.436 32.0391V28.7138H146.435ZM130.974 39.7673H126.207V26.3084C126.207 23.017 124.216 21.9332 122.507 21.9332C119.59 21.9332 118.549 23.8501 118.549 26.4741V39.7664H113.514V26.4342C113.514 24.559 113.514 21.9341 110.014 21.9341C107.263 21.9341 106.388 24.0687 105.59 26.2685V39.7681H100.821V18.6652H105.341V21.9158H105.423C106.173 20.4571 107.799 18.0821 111.716 18.0821C114.924 18.0821 116.381 19.7812 117.881 22.1553C118.632 21.0715 120.257 18.0821 123.797 18.0821C128.131 18.0821 130.974 19.559 130.974 24.4341V39.7673H130.974Z" fill="black"/>
</g>
</svg>
